<svg width="16" height="12" viewBox="0 0 16 12" fill="none" xmlns="http://www.w3.org/2000/svg">
<path d="M14.4 0.787653H4.976C4.76585 0.553857 4.51139 0.364088 4.22738 0.22934C3.94336 0.0945926 3.63542 0.017546 3.32141 0.00266406C3.0074 -0.0122179 2.69356 0.0353601 2.39807 0.142643C2.10258 0.249926 1.83132 0.41478 1.6 0.627653C1.088 1.07565 0.8 1.71565 0.8 2.38765V9.58765C0.587827 9.58765 0.384344 9.67194 0.234315 9.82197C0.0842854 9.972 0 10.1755 0 10.3877V11.1877H6.4V10.3877C6.4 10.1755 6.31571 9.972 6.16569 9.82197C6.01566 9.67194 5.81217 9.58765 5.6 9.58765V3.98765H14.4C14.8243 3.98765 15.2313 3.81908 15.5314 3.51902C15.8314 3.21897 16 2.812 16 2.38765C16 1.96331 15.8314 1.55634 15.5314 1.25628C15.2313 0.956225 14.8243 0.787653 14.4 0.787653ZM3.2 3.58765C2.88174 3.58765 2.57652 3.46123 2.35147 3.23618C2.12643 3.01114 2 2.70591 2 2.38765C2 2.06939 2.12643 1.76417 2.35147 1.53912C2.57652 1.31408 2.88174 1.18765 3.2 1.18765C3.51826 1.18765 3.82348 1.31408 4.04853 1.53912C4.27357 1.76417 4.4 2.06939 4.4 2.38765C4.4 2.70591 4.27357 3.01114 4.04853 3.23618C3.82348 3.46123 3.51826 3.58765 3.2 3.58765ZM6.8 3.18765L5.6 1.58765H6.8L8 3.18765H6.8ZM10 3.18765L8.8 1.58765H10L11.2 3.18765H10ZM13.2 3.18765L12 1.58765H13.2L14.4 3.18765H13.2Z" fill="white"/>
</svg>
